<?xml version="1.0" encoding="utf-8"?>
<!-- Generator: Adobe Illustrator 25.0.0, SVG Export Plug-In . SVG Version: 6.00 Build 0)  -->
<svg version="1.1" id="Layer_1" xmlns="http://www.w3.org/2000/svg" xmlns:xlink="http://www.w3.org/1999/xlink" x="0px" y="0px"
	 viewBox="0 0 383.1 361.9" style="enable-background:new 0 0 383.1 361.9;" xml:space="preserve">
<style type="text/css">
	.st0{fill:#010101;}
	.st1{fill:#8090A2;}
	.st2{fill:#B1DAAF;}
	.st3{fill:#D0E8CF;}
	.st4{fill:#FFFFFF;}
	.st5{fill:#8BCB96;}
	.st6{fill:#030303;}
	.st7{fill:#020202;}
	.st8{fill:#C4C4C4;}
	.st9{fill:#FEFEFE;}
</style>
<g>
	<path class="st0" d="M6.8,160c1.9-5.6,3.5-11.3,6.8-16.3c8.7-13.3,21-22.1,34.4-29.5c11.2-6.1,22.9-10.8,35-14.7
		c2.6-0.8,3.8-2,4.2-5c6.9-46.9,38.7-82.9,83.6-92.1c38.8-7.9,72.3,4,99.3,34.1c14.7,16.4,23.2,36.2,26.1,58.4
		c0.3,2.6,1.3,3.6,3.5,4.3c16.9,5.5,33.3,12.2,48.1,22.6c8,5.6,15.4,12.1,20.9,20.4c11,16.7,10.2,34.3-2.2,50
		c-10.5,13.2-24.2,21.9-38.9,29c-8.8,4.2-17.9,7.8-27.3,10.7c-2.2,0.7-3.3,1.3-1.4,3.9c15.9,23,31.6,46.1,47.5,69.2
		c5.8,8.5,4.3,17.2-4.6,24.8c-8.6,7.3-18.7,11.7-29.1,15.3c-22,7.7-44.7,11.5-67.7,14c-29.6,3.2-59.3,3.6-89,1.5
		c-28.5-2-56.7-5.8-84-15c-10.8-3.6-21.2-8-30.2-15.5c-2.5-2.1-4.7-4.6-6.4-7.6c-3.3-5.9-2.7-11.5,0.9-16.8
		c15.8-23.1,31.6-46.2,47.5-69.1c2.1-3,1.5-3.8-1.6-4.8c-16.5-5.5-32.6-12.1-47-22.3c-10.1-7.2-19.2-15.5-24.6-27.2
		c-1.5-3.3-2.6-6.8-3.8-10.3C6.8,167.9,6.8,164,6.8,160z"/>
	<path class="st1" d="M185.4,234.1c-26.8-0.1-59.4-3.6-91.2-12.8c-18.7-5.4-36.8-12.5-52.9-24.1c-6.7-4.8-12.6-10.4-17-17.6
		c-5.2-8.6-5.7-17.3-0.9-26.2c3.8-7,9.2-12.4,15.4-17.1c13.5-10.3,28.7-17.1,44.5-22.7c1.5-0.5,2.3-0.6,3.1,1.4
		c1.2,2.8,3.9,4.7,6.3,6.6c16.4,13,35.2,20.4,55.2,24.5c32.1,6.5,64.1,6.2,95.9-2c16.8-4.3,32.6-11.2,46.5-22.3
		c2.7-2.2,5.8-4.2,6.9-7.8c0.4-1.3,1.3-0.8,2.1-0.5c19,6.7,37.3,14.8,52.3,29.2c1.1,1.1,2.2,2.3,3.2,3.5c11.1,12.9,11,26.6-0.2,39.5
		c-8.5,9.8-19.2,16.6-30.5,22.2c-23,11.4-47.4,17.7-72.5,21.7C231.7,232.7,211.7,234.1,185.4,234.1z"/>
	<path class="st2" d="M328,303c-0.9,2.6-1.7,5.2-2.9,7.6c-1.1,2.3-0.4,3.4,1.7,4.2c1.8,0.7,3.5,1.7,5.2,2.6c2.3,1,1.9,2.1,0.1,3.3
		c-4.3,3.1-8.9,5.5-13.7,7.5c-17,7.3-34.8,11.5-52.8,14.4c-39.6,6.4-79.5,6.8-119.4,3.6c-23.4-1.9-46.5-5.9-68.9-13.2
		c-8.8-2.9-17.4-6.4-25.3-11.6c-3.4-2.2-3.4-2.7,0.1-4.3c2.9-1.3,3.5-2.9,1.7-5.6c-0.5-0.7-0.6-1.6-0.9-2.4c0.1-1,0.4-2,1.3-2.6
		c4.9-3.3,9.8-6.7,16-6.7c1.8,0.1,2.3,1.5,2.7,2.9c1,3.1,3.1,3.2,5.7,2.5c2.6-0.7,3.8-2.2,3.3-5.1c-0.3-1.6-0.6-3.2,0.8-4.5
		c2.6-2.3,5.9-2.6,9-3.3c3.2-0.8,6.3-1.4,9.1-3.3c1.6-0.2,2.4,0.8,2.8,2.3c0.2,1,0.4,1.9,0.7,2.9c0.9,4.1,1.7,4.9,4.8,4.5
		c3.8-0.5,4.6-1.5,4.4-5.6c-0.1-1.6-0.4-3.3,1.3-4.4c3.6-1.8,7.6-1.8,11.5-2.3c2.5-0.3,4.9-0.9,7.4-1.3c2.9,0.5,2.4,2.9,2.7,4.9
		c0.5,4.1,1.8,5.1,5.7,4.6c2.4-0.3,3.5-1.7,3.8-4.2c0.2-1.9-0.3-4.1,1.6-5.4c4.4-1.4,8.9-0.9,13.4-1.6c1.7-0.3,3.5-0.3,5.3-0.5
		c3.1,0.5,2.5,3.1,2.8,5.2c0.4,3.8,1.6,5,4.9,4.9c2.7,0,4.2-1.3,4.5-4.2c0.2-1.8-0.3-3.8,1.4-5.2c2.2-1.2,4.7-1.1,7-1
		c4.3,0.1,8.6,0.1,12.4-2.4c3.2,1.8,2.1,4.9,2,7.6c-0.1,4.1,1.4,5.7,5.3,5.2c2.2-0.3,3.4-1.6,3.6-3.8c0.3-2.1,0.3-4.2,2.2-5.6
		c1.5-0.6,3-1,4.5-0.8c5.1,0.8,10.1,0.9,15-1.1c2.8,1.6,1.8,4.2,1.6,6.6c-0.4,4.5,1,6.3,4.9,6.3c2.7,0,4.2-1.3,4.4-4.2
		c0.1-2-0.1-4.4,2.7-4.9c6.2-1.3,12.2-0.1,18.2,1.5c2.5,1.3,2,3.7,2,5.8c0,3.7,0.7,4.7,4,5.2c3.1,0.5,4.1-0.4,5.1-4
		c0.6-2,0-4.7,2.9-5.4c6.3,0.6,12.6,1.5,18.7,3.6c2.6,1.5,1.5,3.8,1.1,6c-0.7,4.2,0.1,5.3,4,6.1c2.6,0.6,4-0.3,4.8-3
		c0.6-2,0.3-4.7,3.1-5.3C316.2,296.5,322.6,298.4,328,303z"/>
	<path class="st3" d="M133.9,285.6c-0.7,1.6-2.2,1.8-3.6,2c-5.1,0.7-10.1,1.3-15.2,1.9c-4.5-1.9-9.1-0.2-13.7-0.1
		c0,2.1-1.2,2.9-3.1,3.3c-5.1,1.1-10.1,2.4-15.1,3.6c-2,0.6-3.1-1.8-5.3-1.4c-3.6,0.6-6,2.5-7.5,5.8c-6.3,1.5-11.8,4.9-17.3,8.2
		c-1.4-1.5-1.1-2.9,0-4.6c15.1-21.7,30.2-43.5,45.2-65.3c1.2-1.7,2.3-2,4.2-1.5c38.7,9.3,77.9,11.9,117.5,9.3
		c20.4-1.4,40.6-4.4,60.5-9.2c2.3-0.6,3.4,0,4.7,1.9c13.8,20.1,27.7,40.1,41.6,60.2c0.7,1,1.8,1.8,1.2,3.3c-6.2-2-12.4-4-18.7-6
		c-4-2.5-8.5-3.2-13.1-3.7c-6.3-1-12.8-1.4-18.9-3.9c-4.4-1.4-8.9-1.7-13.5-1.3c-6.3-0.3-12.6-1.9-19-1.6c-1.9-1.4-4.1-1.8-6.4-1.9
		c-2.4-0.2-4.8-0.4-6.4-2.5c-1,2.3-2.7,3-5.1,3c-4.9,0.1-9.7-0.7-14.6-0.8c-3.2-0.9-6.3-2-9.7-2c-1.3,0-2.3-0.6-3-1.6
		c-1,3.4-3.5,3.8-6.4,3.7c-4.4-0.2-8.9,0-13.3,0c-1.3,0.1-2.2-1.1-3.5-1.2c-2.7-0.6-5.5-0.2-8.2-0.3c-0.7-0.2-1.3,0.1-1.8,0.4
		c-0.6,1.2-1.7,1.7-3,1.7c-5.4,0.1-10.7,1.2-16,0.8C143,284.1,138.5,284.5,133.9,285.6z"/>
	<path class="st4" d="M238.7,131.2c2.7-8.9,4.2-17.5,5.3-26.3c3.7-30.4-14.4-57.1-42.7-62.8c-31.5-6.4-61.6,18.7-62.4,51.9
		c-0.3,11.4,1.4,22.6,4.5,33.6c0.3,1.1,0.6,2.1,1.1,3.7c-5.8-1-10.9-2.9-16.1-4.9c-9.5-3.6-18.5-8.3-26.7-14.6
		c-1.8-1.4-2.5-2.9-2.5-5.3c1.6-44.3,31.9-81.7,73.7-90.8c49.9-10.8,99.8,23.6,109.3,75.5c0.7,4,0.8,8.2,1.5,12.2
		c0.9,4.7-0.8,7.5-4.5,10.2C269.3,120.6,250.5,129.1,238.7,131.2z"/>
	<path class="st5" d="M191.6,136.8c-9.3,0.2-18.5-0.6-27.7-1.6c-2.8-0.3-4.4-1.5-5.4-4.4c-4.6-13.4-7.7-27.1-5.9-41.4
		c2.5-19.6,19.5-34.6,39-34.5c19.5,0,36.5,14.9,39,34.6c1.9,15-1.4,29.2-6.6,43.1c-0.9,2.5-2.9,2.3-4.7,2.6
		C210.1,136.3,200.9,137,191.6,136.8z"/>
	<path class="st0" d="M85.9,198.4C71.3,198.3,59.5,186,59.6,171c0.1-14.9,11.9-27,26.3-27.1c14.5-0.1,26.4,12.2,26.4,27.3
		C112.3,186.3,100.6,198.4,85.9,198.4z"/>
	<path class="st0" d="M297.2,198.4c-14.7,0-26.4-12.1-26.3-27.3c0-15.1,11.9-27.4,26.4-27.3c14.4,0.1,26.1,12.3,26.2,27.2
		C323.7,186,311.8,198.3,297.2,198.4z"/>
	<path class="st0" d="M165.3,191.2c0.4-15.5,12.4-27.2,27.2-26.8c14.4,0.5,25.9,13.1,25.4,27.9c-0.5,15.1-12.4,27.1-26.6,26.7
		C176.6,218.7,164.9,206.1,165.3,191.2z"/>
	<path class="st6" d="M199.7,280.6c3.1,0.1,6.2,0.4,9.4,0.3c2.4-0.1,3.6,0.8,3.4,3.4c-0.2,2.6-0.5,5.2-0.5,7.8
		c0,1.8-0.5,2.7-2.5,2.6c-12.8-0.6-10.2,2-10.1-10.4C199.3,283.1,199.6,281.8,199.7,280.6z"/>
	<path class="st7" d="M263.9,288.1c0.3-2.3,1.4-2.9,3.6-2.4c2.5,0.6,5.1,0.8,7.7,1.1c1.5,0.2,2.5,0.8,2.1,2.6
		c-0.5,2.8-1.1,5.6-1.5,8.4c-0.3,2-0.9,3.1-3.2,2.5c-2.3-0.6-4.7-0.9-7.1-1c-2.3-0.1-2.8-1.3-2.5-3.4
		C263.5,293.2,263.7,290.6,263.9,288.1z"/>
	<path class="st7" d="M296.3,293.2c0.5-1.5,1.1-2.5,3-1.8c2.6,0.9,5.2,1.5,7.9,2c2.3,0.4,2.6,1.6,2.1,3.5c-0.8,2.7-1.6,5.4-2.3,8.2
		c-0.4,1.7-1.2,2.3-2.8,1.7c-0.1,0-0.2,0-0.3-0.1c-3.1-1.3-7.9-0.2-9.1-3.5C293.7,300.5,295.6,296.6,296.3,293.2z"/>
	<path class="st7" d="M101.4,289.4c0-1.8,1.5-1.7,2.6-1.9c2.2-0.4,4.6-0.4,6.7-1.1c3-0.9,4.1,0.3,4.4,3.1c0.2,2.5,0.4,4.9,0.8,7.4
		c0.3,1.9-0.4,2.8-2.2,3c-2.1,0.3-4.3,0.3-6.3,1c-3.3,1.1-4.1-0.6-4.4-3.5C102.6,294.7,101.9,292,101.4,289.4z"/>
	<path class="st7" d="M70.3,300.7c-0.2-0.7-0.3-1.4-0.5-2.1c-0.7-2.3-0.3-3.7,2.3-4c1.8-0.2,3.6-0.7,5.2-1.4
		c3.4-1.6,5.3-0.7,5.9,3.2c0.4,2.1,0.6,4.2,1.2,6.2c0.7,2.3-0.1,3.2-2.1,3.5c-0.2,0-0.5,0.1-0.7,0.2c-2.7,0.7-5.5,2.4-7.9,1.8
		C70.9,307.2,72,302.9,70.3,300.7z"/>
	<path class="st7" d="M178.1,280.6c2.1,0.4,1.2,2.4,1.8,3.7c0,1.1-0.1,2.2-0.1,3.3c0.1,7,0.1,7-6.8,7.1c-5.9,0.1-5.9,0.1-6.1-5.9
		c-0.1-1.8-0.3-3.7-0.5-5.5c0-0.6,0-1.1-0.1-1.7c2-1.6,4.3-0.4,6.4-0.7C174.6,280.6,176.4,281.2,178.1,280.6z"/>
	<path class="st7" d="M232.1,282c3.1,0.2,6.2,0.7,9.3,0.6c2.7,0,4,0.8,3.6,3.8c-0.9,2.5-0.5,5.2-0.8,7.7c-0.2,1.6-0.8,2.6-2.5,2.2
		c-0.2,0-0.5,0-0.7-0.1c-10.2-0.4-10.2-0.4-9.1-11C231.9,284.3,232,283.2,232.1,282z"/>
	<path class="st7" d="M133.9,285.6c2.8-4.7,7.5-2,11.2-3c2.4-0.7,1.6,1.7,2.2,2.9c0.1,0.1,0.1,0.2,0.1,0.3c0,0.4-0.1,0.7-0.1,1.1
		c0.3,10-0.2,10.4-10.1,10.1c-1.6-0.1-2.1-0.7-2.2-2.1C134.7,291.7,134.3,288.7,133.9,285.6z"/>
	<path class="st8" d="M178.1,280.6c-3.9,0.3-7.8,0.7-11.7,1C170.2,279.5,174.2,280.7,178.1,280.6z"/>
	<path class="st0" d="M163.1,94.8c8.2,1.3,15.7,5.5,20.6,13.8c3,5.2,0.4,9.8-5.5,9.3c-9.3-0.8-16.5-5.6-21.7-13.6
		c-1.4-2.1-1.9-4.7-0.4-7.1C157.4,95,159.8,94.8,163.1,94.8z"/>
	<path class="st0" d="M204.7,118c-5.7,0-8.3-4.1-5.4-9.2c5-8.5,12.5-13.3,22.1-14c5.5-0.4,7.8,3.8,5.4,9
		C223.5,111,212.4,118.1,204.7,118z"/>
	<path class="st9" d="M85.9,184.7c-7.2-0.1-13-6.2-13-13.7c0-7.6,5.8-13.5,13.1-13.5c7.4,0,13.3,6.2,13.2,13.8
		C99,178.9,93.1,184.8,85.9,184.7z"/>
	<path class="st9" d="M297.2,157.6c7.3,0,13.1,5.9,13.2,13.5c0.1,7.5-5.7,13.6-12.9,13.7c-7.4,0.1-13.4-6.1-13.4-13.7
		C284.1,163.6,289.9,157.6,297.2,157.6z"/>
	<path class="st9" d="M204.7,191.9c-0.1,7.5-6,13.6-13.2,13.5c-7.3-0.1-13.1-6.4-13-14.1c0.1-7.4,6.2-13.5,13.4-13.3
		C199.1,178.2,204.8,184.3,204.7,191.9z"/>
</g>
</svg>
