<svg xmlns="http://www.w3.org/2000/svg" viewBox="0 0 383.14 361.85"><g id="Layer_2" data-name="Layer 2"><g id="Layer_1-2" data-name="Layer 1"><path d="M383.11,190.77c0-16.64-15.75-25.68-30.14-17.32S323.92,189.54,310.36,199c-5.77,4-11.06,4.11-17.05,4.2-.12,0-.25,0-.37,0-2.24.36-2.7-.76-2.64-2.78.12-4.48.08-9,0-13.46-.18-14.53-11.14-25.48-25.65-25.66-2.64,0-5.29,0-8.2,0,33-26.61,46.09-59.63,33.84-100.39C279.88,26.21,249.19,1.65,212.56.11c-47.5-2-77.27,22.69-92.51,66.7-.5-.52-1.1-1.13-1.68-1.76C99.71,44.67,76.73,36.87,50.05,44,23.6,51.11,7.45,69.08,1.28,95.88,1,97,1.34,98.44,0,99.17v18.71a1.76,1.76,0,0,1,.37,1.38,48,48,0,0,0,6.93,24,88.35,88.35,0,0,0,10.5,14c1.44,1.56,1.71,2.56-.65,3.46C7.53,164.39.86,170.56,0,181.48V341.62c.71.26.7.93.9,1.5,4.33,12.41,13.09,18.69,26.18,18.7h82.61c5.89,0,8.09-1.77,9.38-7.42,1.45-2.89.62-5.62-2.23-7.55-2.64-1.78-5.62-1.84-8.63-1.84-26.19,0-52.38,0-78.56,0-9.53,0-12.74-3.31-12.83-12.89v-1.5q0-69,0-138c0-11.76,2.73-14.46,14.62-14.46H258.89a50.66,50.66,0,0,1,5.23.13c5.45.59,8.6,3.69,9.24,9.1a41.47,41.47,0,0,1,.15,4.86q0,69.39,0,138.79a36.4,36.4,0,0,1-.2,5.22c-.71,4.88-3.66,7.86-8.51,8.59a41.18,41.18,0,0,1-6,.21H182.13c-3,0-6,.05-8.63,1.84-2.86,1.93-3.68,4.66-2.23,7.55,1.24,5.52,3.48,7.41,9,7.42,28.05,0,56.11.06,84.16,0,14.76,0,25.72-11.06,25.88-25.79.06-4.49,0-9,0-13.47,0-1.15-.42-2.85,1.61-2.58,5.78.77,12.52-2.69,17,3.79.2.28.62.4.94.59,14.28,8.41,28.52,16.88,42.84,25.2,14.64,8.49,30.31-.49,30.33-17.37Q383.17,261.48,383.11,190.77Zm-273.2-29.66a70.7,70.7,0,0,0,20.44-28.42,92.89,92.89,0,0,0,26.75,28.42Z"/><path d="M119.07,354.4c-1.25-5.69-3.47-7.53-9.31-7.53q-40.59,0-81.18,0c-10,0-13.61-3.59-13.61-13.41q0-72,0-144c0-9.42,3.73-13.17,13.11-13.17H262.26c9.37,0,13.11,3.76,13.11,13.17v144c0,9.71-3.66,13.4-13.25,13.41q-40.77,0-81.55,0c-5.85,0-8.06,1.84-9.3,7.53H152.74c-1.53,0-1.9-1.37-2.61-2.32-3-4.11-6.88-4.11-9.93,0-.71.95-1.08,2.29-2.61,2.32Z" style="fill:#8690a6"/><path d="M137.59,354.4c1.08-4.9,3.53-7.4,7.39-7.5s6.65,2.48,7.76,7.5c-1.14,5-3.79,7.5-7.76,7.4S138.7,359.27,137.59,354.4Z" style="fill:#010101"/><path d="M368.16,261.55q0,34.79,0,69.58c0,6.66-2.94,8.38-8.64,5-12.25-7.19-24.46-14.45-36.74-21.58a4.43,4.43,0,0,1-2.55-4.41q.11-48.63,0-97.26a4.41,4.41,0,0,1,2.55-4.4c12.39-7.2,24.71-14.52,37.07-21.77,5.27-3.08,8.31-1.3,8.31,4.85Q368.18,226.58,368.16,261.55Z" style="fill:#9bc6ff"/><path d="M133.19,88a73.32,73.32,0,1,1,73.31,73.31A73.38,73.38,0,0,1,133.19,88Z" style="fill:#98a1b3"/><path d="M67.18,56.52A52.38,52.38,0,1,1,15,109.05,52.49,52.49,0,0,1,67.18,56.52Z" style="fill:#98a1b3"/><path d="M305.3,261.55c0,13.21-.07,26.42.06,39.63,0,2.83-.63,4.14-3.71,3.81-3.57-.37-8.15,1.44-10.49-.7s-.77-6.84-.78-10.39c-.08-23.93,0-47.86-.11-71.78,0-3,.69-4.34,3.9-4a44.74,44.74,0,0,0,7.85,0c2.69-.21,3.35.9,3.33,3.44C305.24,234.88,305.3,248.21,305.3,261.55Z" style="fill:#98a1b3"/><path d="M113.37,239.1h62.46c7.17,0,9.73,2.53,9.74,9.64q0,33.86,0,67.7c0,6.84-2.65,9.45-9.56,9.45q-63,0-126,0c-6.9,0-9.54-2.62-9.55-9.46q0-34,0-68.08c0-6.59,2.69-9.24,9.37-9.25Q81.58,239.08,113.37,239.1Z"/><path d="M229,269c5.61,0,11.21-.05,16.82,0s8.53,2.89,8.56,8.54q.11,16.83,0,33.65c0,5.85-2.89,8.64-8.82,8.66q-16.65.08-33.28,0c-5.89,0-8.72-2.85-8.75-8.73q-.08-16.64,0-33.27c0-6.09,2.83-8.81,9-8.85C218,269,223.52,269,229,269Z"/><path d="M203.55,222.47a25.43,25.43,0,1,1,25.36,25.6A25.54,25.54,0,0,1,203.55,222.47Z"/><path d="M206,146.31c-32.17-.16-58-26.57-57.83-59.14.16-31.92,26.69-57.8,59-57.58,32,.22,57.9,26.7,57.7,58.94C264.65,120.54,238.25,146.46,206,146.31Z"/><path d="M67.18,143.31a34.41,34.41,0,1,1,34.57-34.06A34.54,34.54,0,0,1,67.18,143.31Z"/><path d="M113.38,254.07c17.82,0,35.63.08,53.45-.08,3.19,0,3.88.91,3.85,3.95q-.23,24.85,0,49.72c0,2.59-.66,3.34-3.31,3.34q-54.39-.13-108.77,0c-2.68,0-3.29-.82-3.27-3.37q.16-25,0-50.09c0-2.77.67-3.56,3.5-3.54C77,254.13,95.19,254.07,113.38,254.07Z" style="fill:#e1e3e9"/><path d="M239.51,294.49c-.32,3.32,1.34,7.57-.69,9.73s-6.36.69-9.67.67-7.82,1.56-10-.7c-2-2.07-.58-6.4-.58-9.72s-1.42-7.58.6-9.73,6.36-.69,9.66-.68,7.81-1.56,10,.7C240.87,286.85,239.2,291.17,239.51,294.49Z" style="fill:#ffcb7c"/><path d="M229.1,212.2a10.44,10.44,0,1,1-10.56,10.41A10.54,10.54,0,0,1,229.1,212.2Z" style="fill:#f5737f"/><path d="M163.11,87.74a43.39,43.39,0,1,1,43.08,43.6A43.51,43.51,0,0,1,163.11,87.74Z" style="fill:#d3d7df"/><path d="M67.41,128.34a19.45,19.45,0,1,1,19.38-19.61A19.52,19.52,0,0,1,67.41,128.34Z" style="fill:#d3d7df"/><path d="M206.5,60.13A7.38,7.38,0,0,1,214,67.42a7.45,7.45,0,1,1-14.9,0A7.31,7.31,0,0,1,206.5,60.13Z" style="fill:#010101"/><path d="M234.31,88A7.38,7.38,0,0,1,227,95.41a7.46,7.46,0,1,1,.08-14.92A7.35,7.35,0,0,1,234.31,88Z" style="fill:#010101"/><path d="M206,115.75a7.33,7.33,0,0,1-6.93-7.76,7.46,7.46,0,0,1,14.9.62A7.4,7.4,0,0,1,206,115.75Z" style="fill:#010101"/><path d="M178.67,87.87A7.37,7.37,0,0,1,186,80.48a7.46,7.46,0,1,1-.15,14.92A7.35,7.35,0,0,1,178.67,87.87Z" style="fill:#010101"/></g></g></svg>