<svg xmlns="http://www.w3.org/2000/svg" xmlns:xlink="http://www.w3.org/1999/xlink" viewBox="0 0 100 58.34"><defs><clipPath id="clip-path"><rect id="SVGID" width="100" height="58.34" style="fill:none"/></clipPath></defs><g id="Layer_2" data-name="Layer 2"><g id="Layer_1-2" data-name="Layer 1"><g id="AUSTRALIA"><g style="clip-path:url(#clip-path)"><rect width="100" height="58.34" style="fill:#180087"/><polygon points="26.3 35.74 27.83 40.48 32.48 38.72 29.74 42.86 34 45.39 29.06 45.83 29.74 50.74 26.3 47.15 22.89 50.74 23.57 45.83 18.61 45.39 22.89 42.86 20.14 38.72 24.79 40.48 26.3 35.74" style="fill:#fff"/><polygon points="78.91 44.26 79.65 46.51 81.86 45.68 80.56 47.65 82.59 48.86 80.22 49.06 80.56 51.41 78.91 49.69 77.29 51.41 77.62 49.06 75.26 48.86 77.29 47.65 75.99 45.68 78.2 46.51 78.91 44.26" style="fill:#fff"/><polygon points="65.77 23.43 66.49 25.69 68.7 24.85 67.4 26.82 69.43 28.03 67.07 28.23 67.4 30.58 65.77 28.86 64.14 30.58 64.46 28.23 62.1 28.03 64.14 26.82 62.83 24.85 65.04 25.69 65.77 23.43" style="fill:#fff"/><polygon points="78.91 9.18 79.65 11.44 81.86 10.6 80.56 12.57 82.59 13.78 80.22 13.99 80.56 16.33 78.91 14.62 77.29 16.33 77.62 13.99 75.26 13.78 77.29 12.57 75.99 10.6 78.2 11.44 78.91 9.18" style="fill:#fff"/><polygon points="90.62 19.93 91.33 22.18 93.56 21.34 92.24 23.32 94.28 24.52 91.92 24.73 92.25 27.07 90.62 25.36 88.99 27.07 89.32 24.73 86.95 24.52 88.99 23.32 87.69 21.34 89.9 22.18 90.62 19.93" style="fill:#fff"/><polygon points="84.18 30.48 84.76 31.88 86.27 32 85.11 32.97 85.47 34.45 84.18 33.65 82.9 34.45 83.26 32.97 82.1 32 83.61 31.88 84.18 30.48" style="fill:#fff"/><polygon points="21.93 0 21.93 8.77 0 8.77 0 17.54 21.93 17.54 21.93 26.31 30.68 26.31 30.68 17.54 52.63 17.54 52.63 8.77 30.68 8.77 30.68 0 21.93 0" style="fill:#fff"/><polygon points="0 0 0 2.94 46.73 26.31 52.61 26.31 52.61 23.37 5.88 0 0 0" style="fill:#fff"/><polygon points="46.73 0 0 23.37 0 26.31 5.88 26.31 52.61 2.94 52.61 0 46.73 0" style="fill:#fff"/><polygon points="23.67 0 23.67 10.52 0 10.52 0 15.79 23.67 15.79 23.67 26.31 28.93 26.31 28.93 15.79 52.61 15.79 52.61 10.52 28.93 10.52 28.93 0 23.67 0" style="fill:#ea0020"/><path d="M0,0V2L13.61,8.77h3.93ZM48.69,0,31.16,8.77h3.92L52.61,0Z" style="fill:#ea0020"/><path d="M17.54,17.54,0,26.31H3.92l17.54-8.77Zm17.54,0,17.54,8.77v-2L39,17.54Z" style="fill:#ea0020"/></g></g></g></g></svg>