<svg xmlns="http://www.w3.org/2000/svg" xmlns:xlink="http://www.w3.org/1999/xlink" viewBox="0 0 100 58.33"><defs><clipPath id="clip-path"><rect id="SVGID" width="100" height="58.33" style="fill:none"/></clipPath></defs><g id="Layer_2" data-name="Layer 2"><g id="Layer_1-2" data-name="Layer 1"><g id="CANADA"><g style="clip-path:url(#clip-path)"><rect width="23.53" height="58.33" style="fill:#ea0020"/><rect x="76.48" width="23.52" height="58.33" style="fill:#ea0020"/><rect x="23.53" width="52.95" height="58.33" style="fill:#fff"/><g style="clip-path:url(#clip-path)"><path d="M50,7.56,46.53,14.3c-.39.73-1.1.66-1.81.25L42.21,13.2l1.87,10.35c.4,1.9-.87,1.9-1.49,1.08l-4.38-5.11-.71,2.59a.84.84,0,0,1-1,.61L31,21.51,32.43,27c.32,1.23.55,1.74-.32,2.06l-2,1,9.54,8.07a1.33,1.33,0,0,1,.43,1.35l-.83,2.86,9.51-1.15c.29,0,.78.26.77.61l-.43,10.46h1.6l-.26-10.44c0-.34.44-.63.73-.63l9.52,1.15-.84-2.86a1.35,1.35,0,0,1,.43-1.35l9.54-8.07-2-1c-.87-.32-.63-.83-.32-2.06L69,21.51l-5.54,1.21a.85.85,0,0,1-1-.61l-.71-2.59L57.4,24.63c-.62.82-1.89.82-1.49-1.08L57.78,13.2l-2.51,1.35c-.71.41-1.41.48-1.8-.25Z" style="fill:#ea0020"/></g></g></g></g></g></svg>