<svg xmlns="http://www.w3.org/2000/svg" xmlns:xlink="http://www.w3.org/1999/xlink" viewBox="0 0 100 58.33"><defs><clipPath id="clip-path"><rect id="SVGID" width="100" height="58.33" style="fill:none"/></clipPath></defs><g id="Layer_2" data-name="Layer 2"><g id="Layer_1-2" data-name="Layer 1"><g id="UNITED_KINGDOM" data-name="UNITED KINGDOM"><g style="clip-path:url(#clip-path)"><rect width="100" height="58.33" style="fill:#fff"/><polygon points="66.96 21.09 100 2.59 100 0 97.72 0 60.05 21.09 66.96 21.09" style="fill:#bd0034"/><polygon points="65.4 38.41 100 57.77 100 53.91 72.31 38.41 65.4 38.41" style="fill:#bd0034"/><polygon points="0 4.44 29.6 21.09 36.52 21.09 0 0.57 0 4.44" style="fill:#bd0034"/><polygon points="34.95 38.41 0 57.99 0 58.33 6.31 58.33 41.87 38.41 34.95 38.41" style="fill:#bd0034"/><polygon points="93.16 0 58.14 0 58.14 19.61 93.16 0" style="fill:#1a237b"/><polygon points="42.69 0 7.81 0 42.69 19.61 42.69 0" style="fill:#1a237b"/><polygon points="100 21.09 100 7.71 76.25 21.09 100 21.09" style="fill:#1a237b"/><polygon points="100 51.65 100 38.41 76.25 38.41 100 51.65" style="fill:#1a237b"/><polygon points="9.79 58.33 42.69 58.33 42.69 39.9 9.79 58.33" style="fill:#1a237b"/><polygon points="58.14 58.33 91.14 58.33 58.14 39.9 58.14 58.33" style="fill:#1a237b"/><polygon points="0 38.41 0 52.25 24.58 38.41 0 38.41" style="fill:#1a237b"/><polygon points="0 21.09 24.58 21.09 0 7.23 0 21.09" style="fill:#1a237b"/><polygon points="45.78 0 45.78 24.55 0 24.55 0 34.95 45.78 34.95 45.78 58.33 55.05 58.33 55.05 34.95 100 34.95 100 24.55 55.05 24.55 55.05 0 45.78 0" style="fill:#bd0034"/></g></g></g></g></svg>