<svg xmlns="http://www.w3.org/2000/svg" xmlns:xlink="http://www.w3.org/1999/xlink" viewBox="0 0 100 58.33"><defs><clipPath id="clip-path"><rect id="SVGID" width="100" height="58.33" style="fill:none"/></clipPath></defs><g id="Layer_2" data-name="Layer 2"><g id="Layer_1-2" data-name="Layer 1"><g id="USA"><g style="clip-path:url(#clip-path)"><rect y="53.84" width="100" height="4.49" style="fill:#cb001c"/><rect y="49.36" width="100" height="4.49" style="fill:#fff"/><rect y="44.87" width="100" height="4.48" style="fill:#cb001c"/><rect y="40.39" width="100" height="4.49" style="fill:#fff"/><rect y="35.9" width="100" height="4.49" style="fill:#cb001c"/><rect y="31.41" width="100" height="4.48" style="fill:#fff"/><rect y="26.92" width="100" height="4.49" style="fill:#cb001c"/><rect y="22.44" width="100" height="4.48" style="fill:#fff"/><rect y="17.95" width="100" height="4.49" style="fill:#cb001c"/><rect y="13.46" width="100" height="4.49" style="fill:#fff"/><rect y="8.98" width="100" height="4.49" style="fill:#cb001c"/><rect y="4.49" width="100" height="4.49" style="fill:#fff"/><rect width="100" height="4.49" style="fill:#cb001c"/><rect width="45.67" height="31.41" style="fill:#2a3560"/><polygon points="4.13 3.46 4.52 4.65 5.77 4.65 4.75 5.38 5.14 6.57 4.13 5.84 3.11 6.57 3.51 5.38 2.5 4.65 3.74 4.65 4.13 3.46" style="fill:#fff"/><polygon points="4.13 8.71 4.52 9.89 5.77 9.89 4.75 10.62 5.14 11.81 4.13 11.08 3.11 11.81 3.51 10.62 2.5 9.89 3.74 9.89 4.13 8.71" style="fill:#fff"/><polygon points="4.13 13.95 4.52 15.13 5.77 15.13 4.75 15.87 5.14 17.06 4.13 16.32 3.11 17.06 3.51 15.87 2.5 15.13 3.74 15.13 4.13 13.95" style="fill:#fff"/><polygon points="4.13 19.19 4.52 20.38 5.77 20.38 4.75 21.11 5.14 22.3 4.13 21.57 3.11 22.3 3.51 21.11 2.5 20.38 3.74 20.38 4.13 19.19" style="fill:#fff"/><polygon points="4.13 24.43 4.52 25.63 5.77 25.63 4.75 26.35 5.14 27.54 4.13 26.81 3.11 27.54 3.51 26.35 2.5 25.63 3.74 25.63 4.13 24.43" style="fill:#fff"/><polygon points="7.78 6.22 8.15 7.41 9.41 7.41 8.4 8.15 8.78 9.33 7.78 8.6 6.77 9.33 7.15 8.15 6.14 7.41 7.4 7.41 7.78 6.22" style="fill:#fff"/><polygon points="7.78 11.47 8.15 12.65 9.41 12.65 8.4 13.39 8.78 14.57 7.78 13.85 6.77 14.57 7.15 13.39 6.14 12.65 7.4 12.65 7.78 11.47" style="fill:#fff"/><polygon points="7.78 16.71 8.15 17.9 9.41 17.9 8.4 18.63 8.78 19.82 7.78 19.09 6.77 19.82 7.15 18.63 6.14 17.9 7.4 17.9 7.78 16.71" style="fill:#fff"/><polygon points="7.78 21.96 8.15 23.14 9.41 23.14 8.4 23.88 8.78 25.06 7.78 24.32 6.77 25.06 7.15 23.88 6.14 23.14 7.4 23.14 7.78 21.96" style="fill:#fff"/><polygon points="11.47 3.46 11.86 4.65 13.11 4.65 12.1 5.38 12.49 6.57 11.47 5.84 10.47 6.57 10.85 5.38 9.84 4.65 11.09 4.65 11.47 3.46" style="fill:#fff"/><polygon points="11.47 8.71 11.86 9.89 13.11 9.89 12.1 10.62 12.49 11.81 11.47 11.08 10.47 11.81 10.85 10.62 9.84 9.89 11.09 9.89 11.47 8.71" style="fill:#fff"/><polygon points="11.47 13.95 11.86 15.13 13.11 15.13 12.1 15.87 12.49 17.06 11.47 16.32 10.47 17.06 10.85 15.87 9.84 15.13 11.09 15.13 11.47 13.95" style="fill:#fff"/><polygon points="11.47 19.19 11.86 20.38 13.11 20.38 12.1 21.11 12.49 22.3 11.47 21.57 10.47 22.3 10.85 21.11 9.84 20.38 11.09 20.38 11.47 19.19" style="fill:#fff"/><polygon points="11.47 24.43 11.86 25.63 13.11 25.63 12.1 26.35 12.49 27.54 11.47 26.81 10.47 27.54 10.85 26.35 9.84 25.63 11.09 25.63 11.47 24.43" style="fill:#fff"/><polygon points="15.12 6.22 15.51 7.41 16.77 7.41 15.75 8.15 16.14 9.33 15.12 8.6 14.12 9.33 14.51 8.15 13.49 7.41 14.74 7.41 15.12 6.22" style="fill:#fff"/><polygon points="15.12 11.47 15.51 12.65 16.77 12.65 15.75 13.39 16.14 14.57 15.12 13.85 14.12 14.57 14.51 13.39 13.49 12.65 14.74 12.65 15.12 11.47" style="fill:#fff"/><polygon points="15.12 16.71 15.51 17.9 16.77 17.9 15.75 18.63 16.14 19.82 15.12 19.09 14.12 19.82 14.51 18.63 13.49 17.9 14.74 17.9 15.12 16.71" style="fill:#fff"/><polygon points="15.12 21.96 15.51 23.14 16.77 23.14 15.75 23.88 16.14 25.06 15.12 24.32 14.12 25.06 14.51 23.88 13.49 23.14 14.74 23.14 15.12 21.96" style="fill:#fff"/><polygon points="18.82 3.46 19.21 4.65 20.45 4.65 19.44 5.38 19.84 6.57 18.82 5.84 17.81 6.57 18.2 5.38 17.2 4.65 18.44 4.65 18.82 3.46" style="fill:#fff"/><polygon points="18.82 8.71 19.21 9.89 20.45 9.89 19.44 10.62 19.84 11.81 18.82 11.08 17.81 11.81 18.2 10.62 17.2 9.89 18.44 9.89 18.82 8.71" style="fill:#fff"/><polygon points="18.82 13.95 19.21 15.13 20.45 15.13 19.44 15.87 19.84 17.06 18.82 16.32 17.81 17.06 18.2 15.87 17.2 15.13 18.44 15.13 18.82 13.95" style="fill:#fff"/><polygon points="18.82 19.19 19.21 20.38 20.45 20.38 19.44 21.11 19.84 22.3 18.82 21.57 17.81 22.3 18.2 21.11 17.2 20.38 18.44 20.38 18.82 19.19" style="fill:#fff"/><polygon points="18.82 24.43 19.21 25.63 20.45 25.63 19.44 26.35 19.84 27.54 18.82 26.81 17.81 27.54 18.2 26.35 17.2 25.63 18.44 25.63 18.82 24.43" style="fill:#fff"/><polygon points="22.48 6.22 22.86 7.41 24.11 7.41 23.1 8.15 23.48 9.33 22.48 8.6 21.47 9.33 21.85 8.15 20.84 7.41 22.09 7.41 22.48 6.22" style="fill:#fff"/><polygon points="22.48 11.47 22.86 12.65 24.11 12.65 23.1 13.39 23.48 14.57 22.48 13.85 21.47 14.57 21.85 13.39 20.84 12.65 22.09 12.65 22.48 11.47" style="fill:#fff"/><polygon points="22.48 16.71 22.86 17.9 24.11 17.9 23.1 18.63 23.48 19.82 22.48 19.09 21.47 19.82 21.85 18.63 20.84 17.9 22.09 17.9 22.48 16.71" style="fill:#fff"/><polygon points="22.48 21.96 22.86 23.14 24.11 23.14 23.1 23.88 23.48 25.06 22.48 24.32 21.47 25.06 21.85 23.88 20.84 23.14 22.09 23.14 22.48 21.96" style="fill:#fff"/><polygon points="26.17 3.46 26.56 4.65 27.8 4.65 26.8 5.38 27.19 6.57 26.17 5.84 25.17 6.57 25.55 5.38 24.54 4.65 25.78 4.65 26.17 3.46" style="fill:#fff"/><polygon points="26.17 8.71 26.56 9.89 27.8 9.89 26.8 10.62 27.19 11.81 26.17 11.08 25.17 11.81 25.55 10.62 24.54 9.89 25.78 9.89 26.17 8.71" style="fill:#fff"/><polygon points="26.17 13.95 26.56 15.13 27.8 15.13 26.8 15.87 27.19 17.06 26.17 16.32 25.17 17.06 25.55 15.87 24.54 15.13 25.78 15.13 26.17 13.95" style="fill:#fff"/><polygon points="26.17 19.19 26.56 20.38 27.8 20.38 26.8 21.11 27.19 22.3 26.17 21.57 25.17 22.3 25.55 21.11 24.54 20.38 25.78 20.38 26.17 19.19" style="fill:#fff"/><polygon points="26.17 24.43 26.56 25.63 27.8 25.63 26.8 26.35 27.19 27.54 26.17 26.81 25.17 27.54 25.55 26.35 24.54 25.63 25.78 25.63 26.17 24.43" style="fill:#fff"/><polygon points="29.82 6.22 30.21 7.41 31.46 7.41 30.45 8.15 30.84 9.33 29.82 8.6 28.82 9.33 29.21 8.15 28.19 7.41 29.45 7.41 29.82 6.22" style="fill:#fff"/><polygon points="29.82 11.47 30.21 12.65 31.46 12.65 30.45 13.39 30.84 14.57 29.82 13.85 28.82 14.57 29.21 13.39 28.19 12.65 29.45 12.65 29.82 11.47" style="fill:#fff"/><polygon points="29.82 16.71 30.21 17.9 31.46 17.9 30.45 18.63 30.84 19.82 29.82 19.09 28.82 19.82 29.21 18.63 28.19 17.9 29.45 17.9 29.82 16.71" style="fill:#fff"/><polygon points="29.82 21.96 30.21 23.14 31.46 23.14 30.45 23.88 30.84 25.06 29.82 24.32 28.82 25.06 29.21 23.88 28.19 23.14 29.45 23.14 29.82 21.96" style="fill:#fff"/><polygon points="33.52 3.46 33.91 4.65 35.16 4.65 34.15 5.38 34.53 6.57 33.52 5.84 32.52 6.57 32.9 5.38 31.89 4.65 33.14 4.65 33.52 3.46" style="fill:#fff"/><polygon points="33.52 8.71 33.91 9.89 35.16 9.89 34.15 10.62 34.53 11.81 33.52 11.08 32.52 11.81 32.9 10.62 31.89 9.89 33.14 9.89 33.52 8.71" style="fill:#fff"/><polygon points="33.52 13.95 33.91 15.13 35.16 15.13 34.15 15.87 34.53 17.06 33.52 16.32 32.52 17.06 32.9 15.87 31.89 15.13 33.14 15.13 33.52 13.95" style="fill:#fff"/><polygon points="33.52 19.19 33.91 20.38 35.16 20.38 34.15 21.11 34.53 22.3 33.52 21.57 32.52 22.3 32.9 21.11 31.89 20.38 33.14 20.38 33.52 19.19" style="fill:#fff"/><polygon points="33.52 24.43 33.91 25.63 35.16 25.63 34.15 26.35 34.53 27.54 33.52 26.81 32.52 27.54 32.9 26.35 31.89 25.63 33.14 25.63 33.52 24.43" style="fill:#fff"/><polygon points="37.18 6.22 37.56 7.41 38.81 7.41 37.81 8.15 38.18 9.33 37.18 8.6 36.16 9.33 36.55 8.15 35.55 7.41 36.79 7.41 37.18 6.22" style="fill:#fff"/><polygon points="37.18 11.47 37.56 12.65 38.81 12.65 37.81 13.39 38.18 14.57 37.18 13.85 36.16 14.57 36.55 13.39 35.55 12.65 36.79 12.65 37.18 11.47" style="fill:#fff"/><polygon points="37.18 16.71 37.56 17.9 38.81 17.9 37.81 18.63 38.18 19.82 37.18 19.09 36.16 19.82 36.55 18.63 35.55 17.9 36.79 17.9 37.18 16.71" style="fill:#fff"/><polygon points="37.18 21.96 37.56 23.14 38.81 23.14 37.81 23.88 38.18 25.06 37.18 24.32 36.16 25.06 36.55 23.88 35.55 23.14 36.79 23.14 37.18 21.96" style="fill:#fff"/><polygon points="40.87 3.46 41.26 4.65 42.5 4.65 41.5 5.38 41.88 6.57 40.87 5.84 39.87 6.57 40.24 5.38 39.24 4.65 40.48 4.65 40.87 3.46" style="fill:#fff"/><polygon points="40.87 8.71 41.26 9.89 42.5 9.89 41.5 10.62 41.88 11.81 40.87 11.08 39.87 11.81 40.24 10.62 39.24 9.89 40.48 9.89 40.87 8.71" style="fill:#fff"/><polygon points="40.87 13.95 41.26 15.13 42.5 15.13 41.5 15.87 41.88 17.06 40.87 16.32 39.87 17.06 40.24 15.87 39.24 15.13 40.48 15.13 40.87 13.95" style="fill:#fff"/><polygon points="40.87 19.19 41.26 20.38 42.5 20.38 41.5 21.11 41.88 22.3 40.87 21.57 39.87 22.3 40.24 21.11 39.24 20.38 40.48 20.38 40.87 19.19" style="fill:#fff"/><polygon points="40.87 24.43 41.26 25.63 42.5 25.63 41.5 26.35 41.88 27.54 40.87 26.81 39.87 27.54 40.24 26.35 39.24 25.63 40.48 25.63 40.87 24.43" style="fill:#fff"/></g></g></g></g></svg>